#!OML:ASF H:\Pregnant\Project 1\Capture day 1\Session 1\femalepreg.ASF
:FULLY-SPECIFIED
:DEGREES
1229
root 9.88732 15.7375 5.81651 19.5452 -14.2199 -5.07652
lowerback -21.4745 -0.807492 -0.502511
upperback -6.70109 -1.17363 2.38908
thorax 4.75539 -0.592227 2.55634
lowerneck -16.6365 -4.08604 -3.98092
upperneck 25.7401 -5.5916 2.94635
head 11.3134 -2.59069 0.92352
rclavicle 5.72003e-014 1.38155e-014
rhumerus -35.8947 -2.29612 -76.5673
rradius 38.4313
rwrist -2.58064
rhand -17.4333 -11.3191
rfingers 7.12502
rthumb 8.81727 -41.1149
lclavicle 5.72003e-014 1.38155e-014
lhumerus -38.9691 -17.9374 92.4388
lradius 39.8394
lwrist 43.5781
lhand -31.2745 -8.26695
lfingers 7.12502
lthumb -4.54818 21.6642
rfemur -37.9957 15.4201 21.6766
rtibia 36.3831
rfoot -13.7054 -1.66754
rtoes -6.97579
lfemur -15.718 -11.0669 -17.6601
ltibia 19.4998
lfoot -14.8617 14.2021
ltoes -28.5504
1230
root 9.88732 15.7374 5.81836 19.5567 -14.2292 -5.0894
lowerback -21.4776 -0.84356 -0.527188
upperback -6.69406 -1.21649 2.39956
thorax 4.76736 -0.613375 2.57093
lowerneck -16.4794 -4.55129 -4.47706
upperneck 25.5344 -6.17053 3.15089
head 11.2545 -2.87947 0.996955
rclavicle -2.41026e-014 1.93815e-014
rhumerus -35.8825 -2.20871 -76.5866
rradius 38.2267
rwrist -2.52491
rhand -17.4208 -11.3343
rfingers 7.12502
rthumb 8.82927 -41.1296
lclavicle -2.41026e-014 1.93815e-014
lhumerus -39.0588 -17.7299 92.4024
lradius 38.9288
lwrist 43.6573
lhand -31.1574 -8.01943
lfingers 7.12502
lthumb -4.43518 21.9141
rfemur -37.9964 15.4178 21.6894
rtibia 36.3783
rfoot -13.7137 -1.64806
rtoes -6.95051
lfemur -15.717 -11.0773 -17.6502
ltibia 19.501
lfoot -14.8587 14.2316
ltoes -28.5713
1231
root 9.88729 15.7373 5.82022 19.5726 -14.2416 -5.10339
lowerback -21.4822 -0.882259 -0.554774
upperback -6.68737 -1.26246 2.41405
thorax 4.78007 -0.636054 2.59071
lowerneck -16.3139 -5.00481 -4.9563
upperneck 25.3259 -6.73885 3.35508
head 11.1967 -3.16202 1.06891
rclavicle 2.20962e-014 -1.0138e-014
rhumerus -35.87 -2.13648 -76.5901
rradius 37.9859
rwrist -2.45159
rhand -17.4007 -11.3422
rfingers 7.12502
rthumb 8.84868 -41.1367
lclavicle 2.20962e-014 -1.0138e-014
lhumerus -39.1682 -17.5003 92.3575
lradius 38.0383
lwrist 43.7479
lhand -31.0396 -7.79642
lfingers 7.12502
lthumb -4.32142 22.1395
rfemur -38.0024 15.4168 21.7022
rtibia 36.373
rfoot -13.7167 -1.62764
rtoes -6.95758
lfemur -15.7197 -11.0872 -17.6384
ltibia 19.5018
lfoot -14.8549 14.2637
ltoes -28.5963
1232
root 9.88727 15.7372 5.82222 19.5917 -14.257 -5.1179
lowerback -21.4852 -0.924781 -0.586227
upperback -6.68548 -1.31299 2.43431
thorax 4.78727 -0.660903 2.61778
lowerneck -16.169 -5.43917 -5.40459
upperneck 25.1435 -7.2852 3.5424
head 11.1544 -3.43327 1.13194
rclavicle 4.00862e-014 1.78906e-014
rhumerus -35.8657 -2.0712 -76.5775
rradius 37.712
rwrist -2.3654
rhand -17.3729 -11.3545
rfingers 7.12502
rthumb 8.87549 -41.1479
lclavicle 4.00862e-014 1.78906e-014
lhumerus -39.3097 -17.2348 92.3043
lradius 37.1757
lwrist 43.8392
lhand -30.9192 -7.58378
lfingers 7.12502
lthumb -4.20513 22.3545
rfemur -38.0119 15.4152 21.715
rtibia 36.3675
rfoot -13.7151 -1.60402
rtoes -6.98655
lfemur -15.7241 -11.0927 -17.6267
ltibia 19.5021
lfoot -14.8526 14.2957
ltoes -28.6212
1233
root 9.88722 15.7371 5.8243 19.6141 -14.274 -5.13338
lowerback -21.4844 -0.972141 -0.622417
upperback -6.6902 -1.36922 2.4611
thorax 4.78601 -0.688459 2.6532
lowerneck -16.0422 -5.85152 -5.819
upperneck 24.9861 -7.80607 3.71228
head 11.1254 -3.69141 1.18585
rclavicle -2.85877e-014 1.66979e-014
rhumerus -35.873 -2.01045 -76.5497
rradius 37.4099
rwrist -2.27194
rhand -17.336 -11.3795
rfingers 7.12502
rthumb 8.91113 -41.1713
lclavicle -2.85877e-014 1.66979e-014
lhumerus -39.4829 -16.9301 92.2405
lradius 36.342
lwrist 43.9263
lhand -30.8051 -7.32847
lfingers 7.12502
lthumb -4.0949 22.6119
rfemur -38.0242 15.4124 21.7287
rtibia 36.3611
rfoot -13.7119 -1.57612
rtoes -7.00984
lfemur -15.7311 -11.0963 -17.6139
ltibia 19.5031
lfoot -14.851 14.3278
ltoes -28.6471
1234
root 9.8871 15.737 5.82655 19.6393 -14.293 -5.14964
lowerback -21.4795 -1.0217 -0.661123
upperback -6.70066 -1.42793 2.49058
thorax 4.7768 -0.717151 2.69238
lowerneck -15.9146 -6.2416 -6.20713
upperneck 24.8451 -8.30176 3.87262
head 11.1027 -3.93671 1.23524
rclavicle -5.52621e-014 6.26172e-015
rhumerus -35.8938 -1.95929 -76.5102
rradius 37.0844
rwrist -2.18008
rhand -17.2948 -11.4213
rfingers 7.12502
rthumb 8.95091 -41.2115
lclavicle -5.52621e-014 6.26172e-015
lhumerus -39.6886 -16.6007 92.1656
lradius 35.5403
lwrist 44.0139
lhand -30.7098 -7.0284
lfingers 7.12502
lthumb -4.00295 22.9137
rfemur -38.0386 15.4094 21.7428
rtibia 36.3537
rfoot -13.7072 -1.54552
rtoes -7.02529
lfemur -15.7395 -11.0997 -17.6003
ltibia 19.5043
lfoot -14.8511 14.3616
ltoes -28.6668
